<?xml version="1.0" encoding="UTF-8" standalone="no"?>
<?xml-stylesheet href="stegotorus_architecture_files/fonts.css" type="text/css"?>
<svg xmlns="http://www.w3.org/2000/svg" version="1.1" viewBox="0 0 517 426">
  <path d="m230,68.78,0.98313,320.31" stroke="#CCC" stroke-width="12" fill="none"/>
  <path d="m223.67,55.78c-2.8443-5.2081-5.2473-11.946-6.344-18.866-2.9798-4.616-7.5587-10.657-9.0121-14.316,1.656-2.5084,10.836-8.0891,4.085-11.741-2.204-1.8637-6.9055,4.0083-3.0777,2.58-5.123,3.5219-10.762,11.662-5.2939,16.979,2.9764,5.1582,6.553,10.15,6.9361,16.24,2.8823,4.5285,0.86434,14.129,8.6372,13.141,1.7918,0.54584,9.3205-3.7652,4.0694-4.0173zm14.748-14.409c-1.5868-3.2891-3.3124-3.2122-7.5295,0.33472l-3.4247,2.8809-1.1128-4.2951c-2.1282-8.2144-1.9948-9.5589,1.1861-11.947l3.0186-2.2667,3.9761,2.4563c4.7187,2.9152,5.0853,3.6549,5.1017,10.291,0.0119,4.4664-0.13814,4.7791-1.2154,2.546zm-0.11835-10.801c-6.92-6.559-6.915-6.5576-11.397-2.8642-2.9569,2.4363-4.0815,4.2576-4.0815,6.6085,0,1.7851,0.44977,3.5235,0.99957,3.863,0.54963,0.33973,1.3524,3.4419,1.784,6.894,0.70392,5.6314,1.2117,6.5495,4.943,8.9361,3.0553,1.9541,4.5536,2.341,5.648,1.4587,3.1032-2.5022,4.736-7.6523,4.736-14.939,0-6.3406-0.39576-7.8374-2.6318-9.9568z"/>
  <path d="m515.66,88.43-177.54-0.71404,0,301.38,88.461,0,0-35.372,87.478,0" stroke="#999" stroke-width="2" fill="none"/>
  <path d="m0.98271,82.4,176.92,0,0.98287,306.69-88.461,0,0-35.372-88.461,0" stroke="#999" stroke-width="2" fill="none"/>
  <path d="m161.2,300.66,194.61,0" stroke="#000" stroke-width="2" fill="none"/>
  <path d="m161.2,353.72,194.61,0" stroke="#000" stroke-width="2" fill="none"/>
  <path d="m161.2,141.49,194.61,0" stroke="#000" stroke-width="2" fill="none"/>
  <path d="m355.81,295.61s-57.303-11.708-88.461-12.633c-36.708-1.0893-106.15,11.791-106.15,11.791" stroke="#000" stroke-width="2" fill="none"/>
  <path d="m355.81,305.71s-57.303,11.708-88.461,12.633c-36.708,1.0893-106.15-11.791-106.15-11.791" stroke="#000" stroke-width="2" fill="none"/>
  <path d="m391.2,297.43c17.692,0,35.384-14.697,36.367-29.394" stroke="#000" stroke-width="2" fill="none"/>
  <path d="m391.2,347.71c14.314-9.6201,27.252-29.938,36.367-54.589" stroke="#000" stroke-width="2" fill="none"/>
  <path d="m125.81,297.43c-17.692,0-36.489-14.697-36.489-29.394" stroke="#000" stroke-width="2" fill="none"/>
  <path d="m125.81,347.71c-14.31-9.62-28.355-29.93-36.488-54.58" stroke="#000" stroke-width="2" fill="none"/>
  <path d="m372.52,53.06c-72.294,0-64.247,81.899-213.54,81.899" stroke="#000" stroke-width="2" fill="none"/>
  <path d="m372.52,35.37c-87.372,0-72.922,93.018-213.65,93.018" stroke="#000" stroke-width="2" fill="none"/>
  <path d="m54.059,371.4,0-53.058" stroke="#000" stroke-width="12" fill="none"/>
  <path d="m460.98,371.4,0-53.058" stroke="#000" stroke-width="12" fill="none"/>
  <path d="m125.81,159.17,35.384,0,0-35.372-35.384,0,0,35.372z" stroke="#000" fill="#000"/>
  <path d="m125.81,212.23,35.384,0,0-35.372-35.384,0,0,35.372z" stroke="#000" fill="#666"/>
  <path d="m125.81,265.29,35.384,0,0-35.372-35.384,0,0,35.372z" stroke="#000" fill="#999"/>
  <path d="m125.81,318.35,35.384,0,0-35.372-35.384,0,0,35.372z" stroke="#000" fill="#CCC"/>
  <path d="m125.81,371.4,35.384,0,0-35.372-35.384,0,0,35.372z" stroke="#000" fill="#FFF"/>
  <path d="m355.81,159.17,35.385,0,0-35.372-35.385,0,0,35.372z" stroke="#000" fill="#000"/>
  <path d="m355.81,212.23,35.385,0,0-35.372-35.385,0,0,35.372z" stroke="#000" fill="#666"/>
  <path d="m355.81,265.29,35.385,0,0-35.372-35.385,0,0,35.372z" stroke="#000" fill="#999"/>
  <path d="m355.81,318.35,35.385,0,0-35.372-35.385,0,0,35.372z" stroke="#000" fill="#CCC"/>
  <path d="m355.81,371.4,35.385,0,0-35.372-35.385,0,0,35.372z" stroke="#000" fill="#FFF"/>
  <path d="m372.52,70.74,141.54,0,0-70.744-141.54,0,0,70.744z" fill="#CCC"/>
  <path d="m426.58,318.35,53.077,0,0-159.17-53.077,0,0,159.17z" fill="#CCC"/>
  <path d="m1.9656,424.46,70.769,0,0-53.058-70.769,0,0,53.058z" fill="#CCC"/>
  <path d="m37.35,318.35,53.077,0,0-159.17-53.077,0,0,159.17z" fill="#CCC"/>
  <path d="m444.27,424.46,70.769,0,0-53.058-70.769,0,0,53.058z" fill="#CCC"/>
  <g font-size="16px" font-family="cabin">
    <text x="241.74513" y="24.111822">Censor</text>
    <text x="384.99088" y="30.632849">Uncensored sites</text>
    <text x="397.51239" y="48.281929">(decoy traffic)</text>
    <text x="26.616306" y="395.24677">Tor</text>
    <text x="18.792431" y="411.83331">client</text>
    <text x="95.739365" y="408.45923">StegoTorus</text>
    <text x="114.44836" y="425.47998">client</text>
    <text x="345.18042" y="408.45923">StegoTorus</text>
    <text x="361.7023" y="425.47998">server</text>
    <text x="468.84381" y="392.74365">Tor</text>
    <text x="458.10968" y="410.49634">bridge</text>
    <text transform="rotate(-90)" x="-271.88806" y="67.876854">Chopping</text>
    <text transform="rotate(-90)" x="-271.88806" y="457.03714">Chopping</text>
    <text x="61.60939" y="103.80135">Steganography</text>
    <text font-size="40px" transform="rotate(-90)" x="-121.12835" y="155.3116">}</text>
  </g>
</svg>